%TF.GenerationSoftware,KiCad,Pcbnew,(6.0.4-0)*%
%TF.CreationDate,2022-07-01T21:41:05+01:00*%
%TF.ProjectId,holyiot-flexypin,686f6c79-696f-4742-9d66-6c6578797069,rev?*%
%TF.SameCoordinates,Original*%
%TF.FileFunction,Legend,Top*%
%TF.FilePolarity,Positive*%
%FSLAX46Y46*%
G04 Gerber Fmt 4.6, Leading zero omitted, Abs format (unit mm)*
G04 Created by KiCad (PCBNEW (6.0.4-0)) date 2022-07-01 21:41:05*
%MOMM*%
%LPD*%
G01*
G04 APERTURE LIST*
%ADD10C,0.150000*%
%ADD11C,0.120000*%
G04 APERTURE END LIST*
D10*
X120250000Y-67500000D02*
X120250000Y-67500000D01*
X149750000Y-97500000D02*
X152750000Y-100250000D01*
X122309523Y-69035714D02*
X122309523Y-69845238D01*
X122261904Y-69940476D01*
X122214285Y-69988095D01*
X122119047Y-70035714D01*
X121976190Y-70035714D01*
X121880952Y-69988095D01*
X122309523Y-69654761D02*
X122214285Y-69702380D01*
X122023809Y-69702380D01*
X121928571Y-69654761D01*
X121880952Y-69607142D01*
X121833333Y-69511904D01*
X121833333Y-69226190D01*
X121880952Y-69130952D01*
X121928571Y-69083333D01*
X122023809Y-69035714D01*
X122214285Y-69035714D01*
X122309523Y-69083333D01*
X122785714Y-69035714D02*
X122785714Y-69702380D01*
X122785714Y-69130952D02*
X122833333Y-69083333D01*
X122928571Y-69035714D01*
X123071428Y-69035714D01*
X123166666Y-69083333D01*
X123214285Y-69178571D01*
X123214285Y-69702380D01*
X124119047Y-69702380D02*
X124119047Y-68702380D01*
X124119047Y-69654761D02*
X124023809Y-69702380D01*
X123833333Y-69702380D01*
X123738095Y-69654761D01*
X123690476Y-69607142D01*
X123642857Y-69511904D01*
X123642857Y-69226190D01*
X123690476Y-69130952D01*
X123738095Y-69083333D01*
X123833333Y-69035714D01*
X124023809Y-69035714D01*
X124119047Y-69083333D01*
X124464285Y-96190476D02*
X123797619Y-96428571D01*
X124464285Y-96666666D01*
X123797619Y-97476190D02*
X124797619Y-97476190D01*
X123845238Y-97476190D02*
X123797619Y-97380952D01*
X123797619Y-97190476D01*
X123845238Y-97095238D01*
X123892857Y-97047619D01*
X123988095Y-97000000D01*
X124273809Y-97000000D01*
X124369047Y-97047619D01*
X124416666Y-97095238D01*
X124464285Y-97190476D01*
X124464285Y-97380952D01*
X124416666Y-97476190D01*
X123797619Y-98380952D02*
X124797619Y-98380952D01*
X123845238Y-98380952D02*
X123797619Y-98285714D01*
X123797619Y-98095238D01*
X123845238Y-98000000D01*
X123892857Y-97952380D01*
X123988095Y-97904761D01*
X124273809Y-97904761D01*
X124369047Y-97952380D01*
X124416666Y-98000000D01*
X124464285Y-98095238D01*
X124464285Y-98285714D01*
X124416666Y-98380952D01*
X124178571Y-98857142D02*
X124178571Y-99619047D01*
X124464285Y-100095238D02*
X123797619Y-100095238D01*
X124369047Y-100095238D02*
X124416666Y-100142857D01*
X124464285Y-100238095D01*
X124464285Y-100380952D01*
X124416666Y-100476190D01*
X124321428Y-100523809D01*
X123797619Y-100523809D01*
X123797619Y-101000000D02*
X124464285Y-101000000D01*
X124273809Y-101000000D02*
X124369047Y-101047619D01*
X124416666Y-101095238D01*
X124464285Y-101190476D01*
X124464285Y-101285714D01*
X124464285Y-101476190D02*
X124464285Y-101857142D01*
X123797619Y-101619047D02*
X124654761Y-101619047D01*
X124750000Y-101666666D01*
X124797619Y-101761904D01*
X124797619Y-101857142D01*
X144964285Y-98202380D02*
X144297619Y-98440476D01*
X144964285Y-98678571D01*
X144297619Y-99059523D02*
X145297619Y-99059523D01*
X144916666Y-99059523D02*
X144964285Y-99154761D01*
X144964285Y-99345238D01*
X144916666Y-99440476D01*
X144869047Y-99488095D01*
X144773809Y-99535714D01*
X144488095Y-99535714D01*
X144392857Y-99488095D01*
X144345238Y-99440476D01*
X144297619Y-99345238D01*
X144297619Y-99154761D01*
X144345238Y-99059523D01*
X144964285Y-100392857D02*
X144297619Y-100392857D01*
X144964285Y-99964285D02*
X144440476Y-99964285D01*
X144345238Y-100011904D01*
X144297619Y-100107142D01*
X144297619Y-100250000D01*
X144345238Y-100345238D01*
X144392857Y-100392857D01*
X144345238Y-100821428D02*
X144297619Y-100916666D01*
X144297619Y-101107142D01*
X144345238Y-101202380D01*
X144440476Y-101250000D01*
X144488095Y-101250000D01*
X144583333Y-101202380D01*
X144630952Y-101107142D01*
X144630952Y-100964285D01*
X144678571Y-100869047D01*
X144773809Y-100821428D01*
X144821428Y-100821428D01*
X144916666Y-100869047D01*
X144964285Y-100964285D01*
X144964285Y-101107142D01*
X144916666Y-101202380D01*
X147559523Y-97285714D02*
X147559523Y-98095238D01*
X147511904Y-98190476D01*
X147464285Y-98238095D01*
X147369047Y-98285714D01*
X147226190Y-98285714D01*
X147130952Y-98238095D01*
X147559523Y-97904761D02*
X147464285Y-97952380D01*
X147273809Y-97952380D01*
X147178571Y-97904761D01*
X147130952Y-97857142D01*
X147083333Y-97761904D01*
X147083333Y-97476190D01*
X147130952Y-97380952D01*
X147178571Y-97333333D01*
X147273809Y-97285714D01*
X147464285Y-97285714D01*
X147559523Y-97333333D01*
X148035714Y-97285714D02*
X148035714Y-97952380D01*
X148035714Y-97380952D02*
X148083333Y-97333333D01*
X148178571Y-97285714D01*
X148321428Y-97285714D01*
X148416666Y-97333333D01*
X148464285Y-97428571D01*
X148464285Y-97952380D01*
X149369047Y-97952380D02*
X149369047Y-96952380D01*
X149369047Y-97904761D02*
X149273809Y-97952380D01*
X149083333Y-97952380D01*
X148988095Y-97904761D01*
X148940476Y-97857142D01*
X148892857Y-97761904D01*
X148892857Y-97476190D01*
X148940476Y-97380952D01*
X148988095Y-97333333D01*
X149083333Y-97285714D01*
X149273809Y-97285714D01*
X149369047Y-97333333D01*
X150309523Y-69285714D02*
X150309523Y-70095238D01*
X150261904Y-70190476D01*
X150214285Y-70238095D01*
X150119047Y-70285714D01*
X149976190Y-70285714D01*
X149880952Y-70238095D01*
X150309523Y-69904761D02*
X150214285Y-69952380D01*
X150023809Y-69952380D01*
X149928571Y-69904761D01*
X149880952Y-69857142D01*
X149833333Y-69761904D01*
X149833333Y-69476190D01*
X149880952Y-69380952D01*
X149928571Y-69333333D01*
X150023809Y-69285714D01*
X150214285Y-69285714D01*
X150309523Y-69333333D01*
X150785714Y-69285714D02*
X150785714Y-69952380D01*
X150785714Y-69380952D02*
X150833333Y-69333333D01*
X150928571Y-69285714D01*
X151071428Y-69285714D01*
X151166666Y-69333333D01*
X151214285Y-69428571D01*
X151214285Y-69952380D01*
X152119047Y-69952380D02*
X152119047Y-68952380D01*
X152119047Y-69904761D02*
X152023809Y-69952380D01*
X151833333Y-69952380D01*
X151738095Y-69904761D01*
X151690476Y-69857142D01*
X151642857Y-69761904D01*
X151642857Y-69476190D01*
X151690476Y-69380952D01*
X151738095Y-69333333D01*
X151833333Y-69285714D01*
X152023809Y-69285714D01*
X152119047Y-69333333D01*
X147464285Y-85154761D02*
X147559523Y-85202380D01*
X147750000Y-85202380D01*
X147845238Y-85154761D01*
X147892857Y-85059523D01*
X147892857Y-85011904D01*
X147845238Y-84916666D01*
X147750000Y-84869047D01*
X147607142Y-84869047D01*
X147511904Y-84821428D01*
X147464285Y-84726190D01*
X147464285Y-84678571D01*
X147511904Y-84583333D01*
X147607142Y-84535714D01*
X147750000Y-84535714D01*
X147845238Y-84583333D01*
X148226190Y-84535714D02*
X148416666Y-85202380D01*
X148607142Y-84726190D01*
X148797619Y-85202380D01*
X148988095Y-84535714D01*
X149797619Y-85202380D02*
X149797619Y-84202380D01*
X149797619Y-85154761D02*
X149702380Y-85202380D01*
X149511904Y-85202380D01*
X149416666Y-85154761D01*
X149369047Y-85107142D01*
X149321428Y-85011904D01*
X149321428Y-84726190D01*
X149369047Y-84630952D01*
X149416666Y-84583333D01*
X149511904Y-84535714D01*
X149702380Y-84535714D01*
X149797619Y-84583333D01*
X150702380Y-85154761D02*
X150607142Y-85202380D01*
X150416666Y-85202380D01*
X150321428Y-85154761D01*
X150273809Y-85107142D01*
X150226190Y-85011904D01*
X150226190Y-84726190D01*
X150273809Y-84630952D01*
X150321428Y-84583333D01*
X150416666Y-84535714D01*
X150607142Y-84535714D01*
X150702380Y-84583333D01*
X151273809Y-85202380D02*
X151178571Y-85154761D01*
X151130952Y-85059523D01*
X151130952Y-84202380D01*
X151654761Y-85202380D02*
X151654761Y-84202380D01*
X151750000Y-84821428D02*
X152035714Y-85202380D01*
X152035714Y-84535714D02*
X151654761Y-84916666D01*
X148119047Y-82654761D02*
X148214285Y-82702380D01*
X148404761Y-82702380D01*
X148500000Y-82654761D01*
X148547619Y-82559523D01*
X148547619Y-82511904D01*
X148500000Y-82416666D01*
X148404761Y-82369047D01*
X148261904Y-82369047D01*
X148166666Y-82321428D01*
X148119047Y-82226190D01*
X148119047Y-82178571D01*
X148166666Y-82083333D01*
X148261904Y-82035714D01*
X148404761Y-82035714D01*
X148500000Y-82083333D01*
X148880952Y-82035714D02*
X149071428Y-82702380D01*
X149261904Y-82226190D01*
X149452380Y-82702380D01*
X149642857Y-82035714D01*
X150452380Y-82702380D02*
X150452380Y-81702380D01*
X150452380Y-82654761D02*
X150357142Y-82702380D01*
X150166666Y-82702380D01*
X150071428Y-82654761D01*
X150023809Y-82607142D01*
X149976190Y-82511904D01*
X149976190Y-82226190D01*
X150023809Y-82130952D01*
X150071428Y-82083333D01*
X150166666Y-82035714D01*
X150357142Y-82035714D01*
X150452380Y-82083333D01*
X150928571Y-82702380D02*
X150928571Y-82035714D01*
X150928571Y-81702380D02*
X150880952Y-81750000D01*
X150928571Y-81797619D01*
X150976190Y-81750000D01*
X150928571Y-81702380D01*
X150928571Y-81797619D01*
X151547619Y-82702380D02*
X151452380Y-82654761D01*
X151404761Y-82607142D01*
X151357142Y-82511904D01*
X151357142Y-82226190D01*
X151404761Y-82130952D01*
X151452380Y-82083333D01*
X151547619Y-82035714D01*
X151690476Y-82035714D01*
X151785714Y-82083333D01*
X151833333Y-82130952D01*
X151880952Y-82226190D01*
X151880952Y-82511904D01*
X151833333Y-82607142D01*
X151785714Y-82654761D01*
X151690476Y-82702380D01*
X151547619Y-82702380D01*
X146797619Y-100095238D02*
X147797619Y-100095238D01*
X146845238Y-100095238D02*
X146797619Y-100000000D01*
X146797619Y-99809523D01*
X146845238Y-99714285D01*
X146892857Y-99666666D01*
X146988095Y-99619047D01*
X147273809Y-99619047D01*
X147369047Y-99666666D01*
X147416666Y-99714285D01*
X147464285Y-99809523D01*
X147464285Y-100000000D01*
X147416666Y-100095238D01*
X147178571Y-100571428D02*
X147178571Y-101333333D01*
X149297619Y-100095238D02*
X150297619Y-100095238D01*
X149345238Y-100095238D02*
X149297619Y-100000000D01*
X149297619Y-99809523D01*
X149345238Y-99714285D01*
X149392857Y-99666666D01*
X149488095Y-99619047D01*
X149773809Y-99619047D01*
X149869047Y-99666666D01*
X149916666Y-99714285D01*
X149964285Y-99809523D01*
X149964285Y-100000000D01*
X149916666Y-100095238D01*
X149678571Y-100571428D02*
X149678571Y-101333333D01*
X149297619Y-100952380D02*
X150059523Y-100952380D01*
X134714285Y-69842380D02*
X134714285Y-68842380D01*
X135142857Y-69842380D02*
X135142857Y-69318571D01*
X135095238Y-69223333D01*
X135000000Y-69175714D01*
X134857142Y-69175714D01*
X134761904Y-69223333D01*
X134714285Y-69270952D01*
X135761904Y-69842380D02*
X135666666Y-69794761D01*
X135619047Y-69747142D01*
X135571428Y-69651904D01*
X135571428Y-69366190D01*
X135619047Y-69270952D01*
X135666666Y-69223333D01*
X135761904Y-69175714D01*
X135904761Y-69175714D01*
X136000000Y-69223333D01*
X136047619Y-69270952D01*
X136095238Y-69366190D01*
X136095238Y-69651904D01*
X136047619Y-69747142D01*
X136000000Y-69794761D01*
X135904761Y-69842380D01*
X135761904Y-69842380D01*
X136666666Y-69842380D02*
X136571428Y-69794761D01*
X136523809Y-69699523D01*
X136523809Y-68842380D01*
X136952380Y-69175714D02*
X137190476Y-69842380D01*
X137428571Y-69175714D02*
X137190476Y-69842380D01*
X137095238Y-70080476D01*
X137047619Y-70128095D01*
X136952380Y-70175714D01*
X137809523Y-69842380D02*
X137809523Y-69175714D01*
X137809523Y-68842380D02*
X137761904Y-68890000D01*
X137809523Y-68937619D01*
X137857142Y-68890000D01*
X137809523Y-68842380D01*
X137809523Y-68937619D01*
X138428571Y-69842380D02*
X138333333Y-69794761D01*
X138285714Y-69747142D01*
X138238095Y-69651904D01*
X138238095Y-69366190D01*
X138285714Y-69270952D01*
X138333333Y-69223333D01*
X138428571Y-69175714D01*
X138571428Y-69175714D01*
X138666666Y-69223333D01*
X138714285Y-69270952D01*
X138761904Y-69366190D01*
X138761904Y-69651904D01*
X138714285Y-69747142D01*
X138666666Y-69794761D01*
X138571428Y-69842380D01*
X138428571Y-69842380D01*
X139047619Y-69175714D02*
X139428571Y-69175714D01*
X139190476Y-68842380D02*
X139190476Y-69699523D01*
X139238095Y-69794761D01*
X139333333Y-69842380D01*
X139428571Y-69842380D01*
X134190476Y-70785714D02*
X134571428Y-70785714D01*
X134333333Y-71452380D02*
X134333333Y-70595238D01*
X134380952Y-70500000D01*
X134476190Y-70452380D01*
X134571428Y-70452380D01*
X135047619Y-71452380D02*
X134952380Y-71404761D01*
X134904761Y-71309523D01*
X134904761Y-70452380D01*
X135809523Y-71404761D02*
X135714285Y-71452380D01*
X135523809Y-71452380D01*
X135428571Y-71404761D01*
X135380952Y-71309523D01*
X135380952Y-70928571D01*
X135428571Y-70833333D01*
X135523809Y-70785714D01*
X135714285Y-70785714D01*
X135809523Y-70833333D01*
X135857142Y-70928571D01*
X135857142Y-71023809D01*
X135380952Y-71119047D01*
X136190476Y-71452380D02*
X136714285Y-70785714D01*
X136190476Y-70785714D02*
X136714285Y-71452380D01*
X137000000Y-70785714D02*
X137238095Y-71452380D01*
X137476190Y-70785714D02*
X137238095Y-71452380D01*
X137142857Y-71690476D01*
X137095238Y-71738095D01*
X137000000Y-71785714D01*
X137857142Y-70785714D02*
X137857142Y-71785714D01*
X137857142Y-70833333D02*
X137952380Y-70785714D01*
X138142857Y-70785714D01*
X138238095Y-70833333D01*
X138285714Y-70880952D01*
X138333333Y-70976190D01*
X138333333Y-71261904D01*
X138285714Y-71357142D01*
X138238095Y-71404761D01*
X138142857Y-71452380D01*
X137952380Y-71452380D01*
X137857142Y-71404761D01*
X138761904Y-71452380D02*
X138761904Y-70785714D01*
X138761904Y-70452380D02*
X138714285Y-70500000D01*
X138761904Y-70547619D01*
X138809523Y-70500000D01*
X138761904Y-70452380D01*
X138761904Y-70547619D01*
X139238095Y-70785714D02*
X139238095Y-71452380D01*
X139238095Y-70880952D02*
X139285714Y-70833333D01*
X139380952Y-70785714D01*
X139523809Y-70785714D01*
X139619047Y-70833333D01*
X139666666Y-70928571D01*
X139666666Y-71452380D01*
X134833333Y-73062380D02*
X134833333Y-72538571D01*
X134785714Y-72443333D01*
X134690476Y-72395714D01*
X134500000Y-72395714D01*
X134404761Y-72443333D01*
X134833333Y-73014761D02*
X134738095Y-73062380D01*
X134500000Y-73062380D01*
X134404761Y-73014761D01*
X134357142Y-72919523D01*
X134357142Y-72824285D01*
X134404761Y-72729047D01*
X134500000Y-72681428D01*
X134738095Y-72681428D01*
X134833333Y-72633809D01*
X135738095Y-73062380D02*
X135738095Y-72062380D01*
X135738095Y-73014761D02*
X135642857Y-73062380D01*
X135452380Y-73062380D01*
X135357142Y-73014761D01*
X135309523Y-72967142D01*
X135261904Y-72871904D01*
X135261904Y-72586190D01*
X135309523Y-72490952D01*
X135357142Y-72443333D01*
X135452380Y-72395714D01*
X135642857Y-72395714D01*
X135738095Y-72443333D01*
X136642857Y-73062380D02*
X136642857Y-72538571D01*
X136595238Y-72443333D01*
X136500000Y-72395714D01*
X136309523Y-72395714D01*
X136214285Y-72443333D01*
X136642857Y-73014761D02*
X136547619Y-73062380D01*
X136309523Y-73062380D01*
X136214285Y-73014761D01*
X136166666Y-72919523D01*
X136166666Y-72824285D01*
X136214285Y-72729047D01*
X136309523Y-72681428D01*
X136547619Y-72681428D01*
X136642857Y-72633809D01*
X137119047Y-72395714D02*
X137119047Y-73395714D01*
X137119047Y-72443333D02*
X137214285Y-72395714D01*
X137404761Y-72395714D01*
X137500000Y-72443333D01*
X137547619Y-72490952D01*
X137595238Y-72586190D01*
X137595238Y-72871904D01*
X137547619Y-72967142D01*
X137500000Y-73014761D01*
X137404761Y-73062380D01*
X137214285Y-73062380D01*
X137119047Y-73014761D01*
X137880952Y-72395714D02*
X138261904Y-72395714D01*
X138023809Y-72062380D02*
X138023809Y-72919523D01*
X138071428Y-73014761D01*
X138166666Y-73062380D01*
X138261904Y-73062380D01*
X138976190Y-73014761D02*
X138880952Y-73062380D01*
X138690476Y-73062380D01*
X138595238Y-73014761D01*
X138547619Y-72919523D01*
X138547619Y-72538571D01*
X138595238Y-72443333D01*
X138690476Y-72395714D01*
X138880952Y-72395714D01*
X138976190Y-72443333D01*
X139023809Y-72538571D01*
X139023809Y-72633809D01*
X138547619Y-72729047D01*
X139452380Y-73062380D02*
X139452380Y-72395714D01*
X139452380Y-72586190D02*
X139500000Y-72490952D01*
X139547619Y-72443333D01*
X139642857Y-72395714D01*
X139738095Y-72395714D01*
%TO.C,J5*%
X144916666Y-79952380D02*
X144916666Y-80666666D01*
X144869047Y-80809523D01*
X144773809Y-80904761D01*
X144630952Y-80952380D01*
X144535714Y-80952380D01*
X145869047Y-79952380D02*
X145392857Y-79952380D01*
X145345238Y-80428571D01*
X145392857Y-80380952D01*
X145488095Y-80333333D01*
X145726190Y-80333333D01*
X145821428Y-80380952D01*
X145869047Y-80428571D01*
X145916666Y-80523809D01*
X145916666Y-80761904D01*
X145869047Y-80857142D01*
X145821428Y-80904761D01*
X145726190Y-80952380D01*
X145488095Y-80952380D01*
X145392857Y-80904761D01*
X145345238Y-80857142D01*
%TO.C,J3*%
X129702380Y-82583333D02*
X130416666Y-82583333D01*
X130559523Y-82630952D01*
X130654761Y-82726190D01*
X130702380Y-82869047D01*
X130702380Y-82964285D01*
X129702380Y-82202380D02*
X129702380Y-81583333D01*
X130083333Y-81916666D01*
X130083333Y-81773809D01*
X130130952Y-81678571D01*
X130178571Y-81630952D01*
X130273809Y-81583333D01*
X130511904Y-81583333D01*
X130607142Y-81630952D01*
X130654761Y-81678571D01*
X130702380Y-81773809D01*
X130702380Y-82059523D01*
X130654761Y-82154761D01*
X130607142Y-82202380D01*
%TO.C,J1*%
X128416666Y-64202380D02*
X128416666Y-64916666D01*
X128369047Y-65059523D01*
X128273809Y-65154761D01*
X128130952Y-65202380D01*
X128035714Y-65202380D01*
X129416666Y-65202380D02*
X128845238Y-65202380D01*
X129130952Y-65202380D02*
X129130952Y-64202380D01*
X129035714Y-64345238D01*
X128940476Y-64440476D01*
X128845238Y-64488095D01*
D11*
%TO.C,J6*%
X152670000Y-98705000D02*
X152670000Y-68165000D01*
X155330000Y-101305000D02*
X154000000Y-101305000D01*
X155330000Y-98705000D02*
X152670000Y-98705000D01*
X155330000Y-99975000D02*
X155330000Y-101305000D01*
X155330000Y-68165000D02*
X152670000Y-68165000D01*
X155330000Y-98705000D02*
X155330000Y-68165000D01*
%TO.C,J4*%
X122970000Y-104830000D02*
X122970000Y-103500000D01*
X125570000Y-104830000D02*
X151030000Y-104830000D01*
X151030000Y-104830000D02*
X151030000Y-102170000D01*
X125570000Y-104830000D02*
X125570000Y-102170000D01*
X125570000Y-102170000D02*
X151030000Y-102170000D01*
X124300000Y-104830000D02*
X122970000Y-104830000D01*
%TO.C, *%
X121330000Y-70795000D02*
X121330000Y-101335000D01*
X118670000Y-68195000D02*
X120000000Y-68195000D01*
X118670000Y-70795000D02*
X121330000Y-70795000D01*
X118670000Y-69525000D02*
X118670000Y-68195000D01*
X118670000Y-101335000D02*
X121330000Y-101335000D01*
X118670000Y-70795000D02*
X118670000Y-101335000D01*
%TD*%
M02*
