%TF.GenerationSoftware,KiCad,Pcbnew,(6.0.4-0)*%
%TF.CreationDate,2022-07-01T21:41:05+01:00*%
%TF.ProjectId,holyiot-flexypin,686f6c79-696f-4742-9d66-6c6578797069,rev?*%
%TF.SameCoordinates,Original*%
%TF.FileFunction,Copper,L1,Top*%
%TF.FilePolarity,Positive*%
%FSLAX46Y46*%
G04 Gerber Fmt 4.6, Leading zero omitted, Abs format (unit mm)*
G04 Created by KiCad (PCBNEW (6.0.4-0)) date 2022-07-01 21:41:05*
%MOMM*%
%LPD*%
G01*
G04 APERTURE LIST*
%TA.AperFunction,ComponentPad*%
%ADD10R,1.700000X1.700000*%
%TD*%
%TA.AperFunction,ComponentPad*%
%ADD11O,1.700000X1.700000*%
%TD*%
%TA.AperFunction,ComponentPad*%
%ADD12O,2.000000X0.950000*%
%TD*%
%TA.AperFunction,ComponentPad*%
%ADD13R,1.300000X0.900000*%
%TD*%
%TA.AperFunction,ComponentPad*%
%ADD14R,0.900000X1.300000*%
%TD*%
%TA.AperFunction,ComponentPad*%
%ADD15O,0.950000X2.000000*%
%TD*%
%TA.AperFunction,Conductor*%
%ADD16C,0.900000*%
%TD*%
G04 APERTURE END LIST*
D10*
%TO.P,J6,1,Pin_1*%
%TO.N,Net-(J6-Pad1)*%
X154000000Y-99975000D03*
D11*
%TO.P,J6,2,Pin_2*%
%TO.N,Net-(J6-Pad2)*%
X154000000Y-97435000D03*
%TO.P,J6,3,Pin_3*%
%TO.N,Net-(J6-Pad3)*%
X154000000Y-94895000D03*
%TO.P,J6,4,Pin_4*%
%TO.N,Net-(J6-Pad4)*%
X154000000Y-92355000D03*
%TO.P,J6,5,Pin_5*%
%TO.N,Net-(J6-Pad5)*%
X154000000Y-89815000D03*
%TO.P,J6,6,Pin_6*%
%TO.N,Net-(J6-Pad6)*%
X154000000Y-87275000D03*
%TO.P,J6,7,Pin_7*%
%TO.N,Net-(J6-Pad7)*%
X154000000Y-84735000D03*
%TO.P,J6,8,Pin_8*%
%TO.N,Net-(J6-Pad8)*%
X154000000Y-82195000D03*
%TO.P,J6,9,Pin_9*%
%TO.N,Net-(J6-Pad9)*%
X154000000Y-79655000D03*
%TO.P,J6,10,Pin_10*%
%TO.N,Net-(J6-Pad10)*%
X154000000Y-77115000D03*
%TO.P,J6,11,Pin_11*%
%TO.N,Net-(J6-Pad11)*%
X154000000Y-74575000D03*
%TO.P,J6,12,Pin_12*%
%TO.N,Net-(J6-Pad12)*%
X154000000Y-72035000D03*
%TO.P,J6,13,Pin_13*%
%TO.N,Net-(J6-Pad13)*%
X154000000Y-69495000D03*
%TD*%
D12*
%TO.P,J5,*%
%TO.N,*%
X143700000Y-66050000D03*
D13*
%TO.P,J5,13,Pin_13*%
%TO.N,Net-(J6-Pad13)*%
X145550000Y-66050000D03*
D12*
%TO.P,J5,*%
%TO.N,*%
X143700000Y-67150000D03*
D13*
%TO.P,J5,12,Pin_12*%
%TO.N,Net-(J6-Pad12)*%
X145550000Y-67150000D03*
D12*
%TO.P,J5,*%
%TO.N,*%
X143700000Y-68250000D03*
D13*
%TO.P,J5,11,Pin_11*%
%TO.N,Net-(J6-Pad11)*%
X145550000Y-68250000D03*
D12*
%TO.P,J5,*%
%TO.N,*%
X143700000Y-69350000D03*
D13*
%TO.P,J5,10,Pin_10*%
%TO.N,Net-(J6-Pad10)*%
X145550000Y-69350000D03*
D12*
%TO.P,J5,*%
%TO.N,*%
X143700000Y-70450000D03*
D13*
%TO.P,J5,9,Pin_9*%
%TO.N,Net-(J6-Pad9)*%
X145550000Y-70450000D03*
D12*
%TO.P,J5,*%
%TO.N,*%
X143700000Y-71550000D03*
D13*
%TO.P,J5,8,Pin_8*%
%TO.N,Net-(J6-Pad8)*%
X145550000Y-71550000D03*
D12*
%TO.P,J5,*%
%TO.N,*%
X143700000Y-72650000D03*
D13*
%TO.P,J5,7,Pin_7*%
%TO.N,Net-(J6-Pad7)*%
X145550000Y-72650000D03*
D12*
%TO.P,J5,*%
%TO.N,*%
X143700000Y-73750000D03*
D13*
%TO.P,J5,6,Pin_6*%
%TO.N,Net-(J6-Pad6)*%
X145550000Y-73750000D03*
D12*
%TO.P,J5,*%
%TO.N,*%
X143700000Y-74850000D03*
D13*
%TO.P,J5,5,Pin_5*%
%TO.N,Net-(J6-Pad5)*%
X145550000Y-74850000D03*
D12*
%TO.P,J5,*%
%TO.N,*%
X143700000Y-75950000D03*
D13*
%TO.P,J5,4,Pin_4*%
%TO.N,Net-(J6-Pad4)*%
X145550000Y-75950000D03*
D12*
%TO.P,J5,*%
%TO.N,*%
X143700000Y-77050000D03*
D13*
%TO.P,J5,3,Pin_3*%
%TO.N,Net-(J6-Pad3)*%
X145550000Y-77050000D03*
D12*
%TO.P,J5,*%
%TO.N,*%
X143700000Y-78150000D03*
D13*
%TO.P,J5,2,Pin_2*%
%TO.N,Net-(J6-Pad2)*%
X145550000Y-78150000D03*
D12*
%TO.P,J5,*%
%TO.N,*%
X143700000Y-79250000D03*
D13*
%TO.P,J5,1,Pin_1*%
%TO.N,Net-(J6-Pad1)*%
X145550000Y-79250000D03*
%TD*%
D10*
%TO.P,J4,1,Pin_1*%
%TO.N,Net-(J3-Pad1)*%
X124300000Y-103500000D03*
D11*
%TO.P,J4,2,Pin_2*%
%TO.N,Net-(J3-Pad2)*%
X126840000Y-103500000D03*
%TO.P,J4,3,Pin_3*%
%TO.N,Net-(J3-Pad3)*%
X129380000Y-103500000D03*
%TO.P,J4,4,Pin_4*%
%TO.N,Net-(J3-Pad4)*%
X131920000Y-103500000D03*
%TO.P,J4,5,Pin_5*%
%TO.N,Net-(J3-Pad5)*%
X134460000Y-103500000D03*
%TO.P,J4,6,Pin_6*%
%TO.N,Net-(J3-Pad6)*%
X137000000Y-103500000D03*
%TO.P,J4,7,Pin_7*%
%TO.N,Net-(J3-Pad7)*%
X139540000Y-103500000D03*
%TO.P,J4,8,Pin_8*%
%TO.N,Net-(J3-Pad8)*%
X142080000Y-103500000D03*
%TO.P,J4,9,Pin_9*%
%TO.N,Net-(J3-Pad9)*%
X144620000Y-103500000D03*
%TO.P,J4,10,Pin_10*%
%TO.N,Net-(J3-Pad10)*%
X147160000Y-103500000D03*
%TO.P,J4,11,Pin_11*%
%TO.N,Net-(J3-Pad11)*%
X149700000Y-103500000D03*
%TD*%
D14*
%TO.P,J3,1,Pin_1*%
%TO.N,Net-(J3-Pad1)*%
X131500000Y-82550000D03*
D15*
%TO.P,J3,*%
%TO.N,*%
X131500000Y-80700000D03*
D14*
%TO.P,J3,2,Pin_2*%
%TO.N,Net-(J3-Pad2)*%
X132600000Y-82550000D03*
D15*
%TO.P,J3,*%
%TO.N,*%
X132600000Y-80700000D03*
D14*
%TO.P,J3,3,Pin_3*%
%TO.N,Net-(J3-Pad3)*%
X133700000Y-82550000D03*
D15*
%TO.P,J3,*%
%TO.N,*%
X133700000Y-80700000D03*
D14*
%TO.P,J3,4,Pin_4*%
%TO.N,Net-(J3-Pad4)*%
X134800000Y-82550000D03*
D15*
%TO.P,J3,*%
%TO.N,*%
X134800000Y-80700000D03*
D14*
%TO.P,J3,5,Pin_5*%
%TO.N,Net-(J3-Pad5)*%
X135900000Y-82550000D03*
D15*
%TO.P,J3,*%
%TO.N,*%
X135900000Y-80700000D03*
D14*
%TO.P,J3,6,Pin_6*%
%TO.N,Net-(J3-Pad6)*%
X137000000Y-82550000D03*
D15*
%TO.P,J3,*%
%TO.N,*%
X137000000Y-80700000D03*
D14*
%TO.P,J3,7,Pin_7*%
%TO.N,Net-(J3-Pad7)*%
X138100000Y-82550000D03*
D15*
%TO.P,J3,*%
%TO.N,*%
X138100000Y-80700000D03*
D14*
%TO.P,J3,8,Pin_8*%
%TO.N,Net-(J3-Pad8)*%
X139200000Y-82550000D03*
D15*
%TO.P,J3,*%
%TO.N,*%
X139200000Y-80700000D03*
D14*
%TO.P,J3,9,Pin_9*%
%TO.N,Net-(J3-Pad9)*%
X140300000Y-82550000D03*
D15*
%TO.P,J3,*%
%TO.N,*%
X140300000Y-80700000D03*
D14*
%TO.P,J3,10,Pin_10*%
%TO.N,Net-(J3-Pad10)*%
X141400000Y-82550000D03*
D15*
%TO.P,J3,*%
%TO.N,*%
X141400000Y-80700000D03*
D14*
%TO.P,J3,11,Pin_11*%
%TO.N,Net-(J3-Pad11)*%
X142500000Y-82550000D03*
D15*
%TO.P,J3,*%
%TO.N,*%
X142500000Y-80700000D03*
%TD*%
D10*
%TO.P, ,1,Pin_1*%
%TO.N,Net-(J1-Pad1)*%
X120000000Y-69525000D03*
D11*
%TO.P, ,2,Pin_2*%
%TO.N,Net-(J1-Pad2)*%
X120000000Y-72065000D03*
%TO.P, ,3,Pin_3*%
%TO.N,Net-(J1-Pad3)*%
X120000000Y-74605000D03*
%TO.P, ,4,Pin_4*%
%TO.N,Net-(J1-Pad4)*%
X120000000Y-77145000D03*
%TO.P, ,5,Pin_5*%
%TO.N,Net-(J1-Pad5)*%
X120000000Y-79685000D03*
%TO.P, ,6,Pin_6*%
%TO.N,Net-(J1-Pad6)*%
X120000000Y-82225000D03*
%TO.P, ,7,Pin_7*%
%TO.N,Net-(J1-Pad7)*%
X120000000Y-84765000D03*
%TO.P, ,8,Pin_8*%
%TO.N,Net-(J1-Pad8)*%
X120000000Y-87305000D03*
%TO.P, ,9,Pin_9*%
%TO.N,Net-(J1-Pad9)*%
X120000000Y-89845000D03*
%TO.P, ,10,Pin_10*%
%TO.N,Net-(J1-Pad10)*%
X120000000Y-92385000D03*
%TO.P, ,11,Pin_11*%
%TO.N,Net-(J1-Pad11)*%
X120000000Y-94925000D03*
%TO.P, ,12,Pin_12*%
%TO.N,Net-(J1-Pad12)*%
X120000000Y-97465000D03*
%TO.P, ,13,Pin_13*%
%TO.N,Net-(J1-Pad13)*%
X120000000Y-100005000D03*
%TD*%
D13*
%TO.P,J1,1,Pin_1*%
%TO.N,Net-(J1-Pad1)*%
X128450000Y-66000000D03*
D12*
%TO.P,J1,*%
%TO.N,*%
X130300000Y-66000000D03*
D13*
%TO.P,J1,2,Pin_2*%
%TO.N,Net-(J1-Pad2)*%
X128450000Y-67100000D03*
D12*
%TO.P,J1,*%
%TO.N,*%
X130300000Y-67100000D03*
D13*
%TO.P,J1,3,Pin_3*%
%TO.N,Net-(J1-Pad3)*%
X128450000Y-68200000D03*
D12*
%TO.P,J1,*%
%TO.N,*%
X130300000Y-68200000D03*
D13*
%TO.P,J1,4,Pin_4*%
%TO.N,Net-(J1-Pad4)*%
X128450000Y-69300000D03*
D12*
%TO.P,J1,*%
%TO.N,*%
X130300000Y-69300000D03*
D13*
%TO.P,J1,5,Pin_5*%
%TO.N,Net-(J1-Pad5)*%
X128450000Y-70400000D03*
D12*
%TO.P,J1,*%
%TO.N,*%
X130300000Y-70400000D03*
D13*
%TO.P,J1,6,Pin_6*%
%TO.N,Net-(J1-Pad6)*%
X128450000Y-71500000D03*
D12*
%TO.P,J1,*%
%TO.N,*%
X130300000Y-71500000D03*
D13*
%TO.P,J1,7,Pin_7*%
%TO.N,Net-(J1-Pad7)*%
X128450000Y-72600000D03*
D12*
%TO.P,J1,*%
%TO.N,*%
X130300000Y-72600000D03*
D13*
%TO.P,J1,8,Pin_8*%
%TO.N,Net-(J1-Pad8)*%
X128450000Y-73700000D03*
D12*
%TO.P,J1,*%
%TO.N,*%
X130300000Y-73700000D03*
D13*
%TO.P,J1,9,Pin_9*%
%TO.N,Net-(J1-Pad9)*%
X128450000Y-74800000D03*
D12*
%TO.P,J1,*%
%TO.N,*%
X130300000Y-74800000D03*
D13*
%TO.P,J1,10,Pin_10*%
%TO.N,Net-(J1-Pad10)*%
X128450000Y-75900000D03*
D12*
%TO.P,J1,*%
%TO.N,*%
X130300000Y-75900000D03*
D13*
%TO.P,J1,11,Pin_11*%
%TO.N,Net-(J1-Pad11)*%
X128450000Y-77000000D03*
D12*
%TO.P,J1,*%
%TO.N,*%
X130300000Y-77000000D03*
D13*
%TO.P,J1,12,Pin_12*%
%TO.N,Net-(J1-Pad12)*%
X128450000Y-78100000D03*
D12*
%TO.P,J1,*%
%TO.N,*%
X130300000Y-78100000D03*
D13*
%TO.P,J1,13,Pin_13*%
%TO.N,Net-(J1-Pad13)*%
X128450000Y-79200000D03*
D12*
%TO.P,J1,*%
%TO.N,*%
X130300000Y-79200000D03*
%TD*%
D16*
%TO.N,Net-(J6-Pad6)*%
X154000000Y-87275000D02*
X151247591Y-84522591D01*
X151247591Y-84522591D02*
X151247591Y-76328745D01*
X151247591Y-76328745D02*
X148668846Y-73750000D01*
X148668846Y-73750000D02*
X145349520Y-73750000D01*
%TO.N,Net-(J1-Pad8)*%
X122500000Y-84805000D02*
X122500000Y-76000000D01*
X120000000Y-87305000D02*
X122500000Y-84805000D01*
X124800000Y-73700000D02*
X128650480Y-73700000D01*
X122500000Y-76000000D02*
X124800000Y-73700000D01*
%TO.N,Net-(J6-Pad5)*%
X154000000Y-89815000D02*
X150148071Y-85963071D01*
X150148071Y-85963071D02*
X150148071Y-76784181D01*
X150148071Y-76784181D02*
X148213890Y-74850000D01*
X148213890Y-74850000D02*
X145349520Y-74850000D01*
%TO.N,Net-(J1-Pad9)*%
X120000000Y-89845000D02*
X123851929Y-85993071D01*
X123851929Y-76734181D02*
X125786110Y-74800000D01*
X123851929Y-85993071D02*
X123851929Y-76734181D01*
X125786110Y-74800000D02*
X128650480Y-74800000D01*
%TO.N,Net-(J6-Pad4)*%
X154000000Y-92355000D02*
X149048551Y-87403551D01*
X149048551Y-87403551D02*
X149048551Y-77239617D01*
X149048551Y-77239617D02*
X147758934Y-75950000D01*
X147758934Y-75950000D02*
X145349520Y-75950000D01*
%TO.N,Net-(J1-Pad10)*%
X120000000Y-92385000D02*
X124951449Y-87433551D01*
X126241066Y-75900000D02*
X128650480Y-75900000D01*
X124951449Y-87433551D02*
X124951449Y-77189617D01*
X124951449Y-77189617D02*
X126241066Y-75900000D01*
%TO.N,Net-(J6-Pad3)*%
X154000000Y-94895000D02*
X147949031Y-88844031D01*
X147949031Y-88844031D02*
X147949031Y-77695053D01*
X147949031Y-77695053D02*
X147303978Y-77050000D01*
X147303978Y-77050000D02*
X145349520Y-77050000D01*
%TO.N,Net-(J1-Pad11)*%
X120000000Y-94925000D02*
X126050969Y-88874031D01*
X126696022Y-77000000D02*
X128650480Y-77000000D01*
X126050969Y-88874031D02*
X126050969Y-77645053D01*
X126050969Y-77645053D02*
X126696022Y-77000000D01*
%TO.N,Net-(J1-Pad12)*%
X120000000Y-97465000D02*
X127150489Y-90314511D01*
X127150489Y-90314511D02*
X127150489Y-78100489D01*
X127150489Y-78100489D02*
X127150978Y-78100000D01*
X127150978Y-78100000D02*
X128650480Y-78100000D01*
%TO.N,Net-(J6-Pad2)*%
X154000000Y-97435000D02*
X146849511Y-90284511D01*
X146849511Y-90284511D02*
X146849511Y-78150489D01*
X146849511Y-78150489D02*
X146849022Y-78150000D01*
X146849022Y-78150000D02*
X145349520Y-78150000D01*
%TO.N,Net-(J6-Pad1)*%
X154000000Y-99975000D02*
X145349520Y-91324520D01*
X145349520Y-91324520D02*
X145349520Y-79250000D01*
%TO.N,Net-(J1-Pad13)*%
X120000000Y-100005000D02*
X128650480Y-91354520D01*
X128650480Y-91354520D02*
X128650480Y-79200000D01*
%TO.N,Net-(J3-Pad11)*%
X149700000Y-103500000D02*
X142500000Y-96300000D01*
X142500000Y-96300000D02*
X142500000Y-82349520D01*
%TO.N,Net-(J3-Pad1)*%
X124300000Y-103500000D02*
X124719370Y-103500000D01*
X124719370Y-103500000D02*
X131500000Y-96719370D01*
X131500000Y-96719370D02*
X131500000Y-82349520D01*
%TO.N,Net-(J3-Pad10)*%
X147160000Y-103500000D02*
X141400000Y-97740000D01*
X141400000Y-97740000D02*
X141400000Y-82349520D01*
%TO.N,Net-(J3-Pad2)*%
X126840000Y-103500000D02*
X132600480Y-97739520D01*
X132600480Y-82500000D02*
X132600480Y-90000000D01*
X132600480Y-97739520D02*
X132600480Y-82500000D01*
%TO.N,Net-(J3-Pad9)*%
X144620000Y-103500000D02*
X140300489Y-99180489D01*
X140300489Y-99180489D02*
X140300489Y-83000000D01*
%TO.N,Net-(J3-Pad3)*%
X129380000Y-103500000D02*
X133700000Y-99180000D01*
X133700000Y-99180000D02*
X133700000Y-82349520D01*
%TO.N,Net-(J3-Pad8)*%
X142080000Y-103500000D02*
X139200000Y-100620000D01*
X139200000Y-100620000D02*
X139200000Y-82349520D01*
%TO.N,Net-(J3-Pad4)*%
X131920000Y-103500000D02*
X134800000Y-100620000D01*
X134800000Y-100620000D02*
X134800000Y-82349520D01*
%TO.N,Net-(J3-Pad5)*%
X134460000Y-103500000D02*
X135900480Y-102059520D01*
X135900480Y-102059520D02*
X135900480Y-82349520D01*
X135900480Y-82349520D02*
X135900000Y-82349520D01*
%TO.N,Net-(J3-Pad7)*%
X139540000Y-103500000D02*
X138099520Y-102059520D01*
X138099520Y-102059520D02*
X138099520Y-83500000D01*
%TO.N,Net-(J3-Pad6)*%
X137000000Y-103500000D02*
X137000000Y-82349520D01*
%TO.N,Net-(J6-Pad10)*%
X146499991Y-69350000D02*
X145349520Y-69350000D01*
X154000000Y-76850009D02*
X146499991Y-69350000D01*
X154000000Y-77115000D02*
X154000000Y-76850009D01*
%TO.N,Net-(J6-Pad11)*%
X154000000Y-74575000D02*
X147675489Y-68250489D01*
X147675489Y-68250489D02*
X146000000Y-68250489D01*
%TO.N,Net-(J6-Pad12)*%
X154000000Y-72035000D02*
X149114520Y-67149520D01*
X149114520Y-67149520D02*
X146149520Y-67149520D01*
%TO.N,Net-(J6-Pad13)*%
X154000000Y-69495000D02*
X150555000Y-66050000D01*
X150555000Y-66050000D02*
X145349520Y-66050000D01*
%TO.N,Net-(J1-Pad4)*%
X120000000Y-77145000D02*
X120000000Y-76800009D01*
X120000000Y-76800009D02*
X127500009Y-69300000D01*
X127500009Y-69300000D02*
X128650480Y-69300000D01*
%TO.N,Net-(J1-Pad3)*%
X120000000Y-74605000D02*
X126404511Y-68200489D01*
X126404511Y-68200489D02*
X128000000Y-68200489D01*
%TO.N,Net-(J1-Pad2)*%
X120000000Y-72065000D02*
X120459022Y-72065000D01*
X120459022Y-72065000D02*
X125424022Y-67100000D01*
X125424022Y-67100000D02*
X128650480Y-67100000D01*
%TO.N,Net-(J1-Pad1)*%
X120000000Y-69525000D02*
X123525000Y-66000000D01*
X123525000Y-66000000D02*
X128650480Y-66000000D01*
%TD*%
M02*
