M48
; DRILL file {KiCad (6.0.4-0)} date Friday, 01 July 2022 at 21:41:08
; FORMAT={-:-/ absolute / metric / decimal}
; #@! TF.CreationDate,2022-07-01T21:41:08+01:00
; #@! TF.GenerationSoftware,Kicad,Pcbnew,(6.0.4-0)
; #@! TF.FileFunction,Plated,1,2,PTH
FMAT,2
METRIC
; #@! TA.AperFunction,Plated,PTH,ComponentDrill
T1C0.600
; #@! TA.AperFunction,Plated,PTH,ComponentDrill
T2C0.650
; #@! TA.AperFunction,Plated,PTH,ComponentDrill
T3C1.000
%
G90
G05
T1
X128.75Y-66.0
X128.75Y-67.1
X128.75Y-68.2
X128.75Y-69.3
X128.75Y-70.4
X128.75Y-71.5
X128.75Y-72.6
X128.75Y-73.7
X128.75Y-74.8
X128.75Y-75.9
X128.75Y-77.0
X128.75Y-78.1
X128.75Y-79.2
X131.5Y-82.25
X132.6Y-82.25
X133.7Y-82.25
X134.8Y-82.25
X135.9Y-82.25
X137.0Y-82.25
X138.1Y-82.25
X139.2Y-82.25
X140.3Y-82.25
X141.4Y-82.25
X142.5Y-82.25
X145.25Y-66.05
X145.25Y-67.15
X145.25Y-68.25
X145.25Y-69.35
X145.25Y-70.45
X145.25Y-71.55
X145.25Y-72.65
X145.25Y-73.75
X145.25Y-74.85
X145.25Y-75.95
X145.25Y-77.05
X145.25Y-78.15
X145.25Y-79.25
T3
X120.0Y-69.525
X120.0Y-72.065
X120.0Y-74.605
X120.0Y-77.145
X120.0Y-79.685
X120.0Y-82.225
X120.0Y-84.765
X120.0Y-87.305
X120.0Y-89.845
X120.0Y-92.385
X120.0Y-94.925
X120.0Y-97.465
X120.0Y-100.005
X124.3Y-103.5
X126.84Y-103.5
X129.38Y-103.5
X131.92Y-103.5
X134.46Y-103.5
X137.0Y-103.5
X139.54Y-103.5
X142.08Y-103.5
X144.62Y-103.5
X147.16Y-103.5
X149.7Y-103.5
X154.0Y-69.495
X154.0Y-72.035
X154.0Y-74.575
X154.0Y-77.115
X154.0Y-79.655
X154.0Y-82.195
X154.0Y-84.735
X154.0Y-87.275
X154.0Y-89.815
X154.0Y-92.355
X154.0Y-94.895
X154.0Y-97.435
X154.0Y-99.975
T2
G00X129.775Y-66.0
M15
G01X130.825Y-66.0
M16
G05
G00X129.775Y-67.1
M15
G01X130.825Y-67.1
M16
G05
G00X129.775Y-68.2
M15
G01X130.825Y-68.2
M16
G05
G00X129.775Y-69.3
M15
G01X130.825Y-69.3
M16
G05
G00X129.775Y-70.4
M15
G01X130.825Y-70.4
M16
G05
G00X129.775Y-71.5
M15
G01X130.825Y-71.5
M16
G05
G00X129.775Y-72.6
M15
G01X130.825Y-72.6
M16
G05
G00X129.775Y-73.7
M15
G01X130.825Y-73.7
M16
G05
G00X129.775Y-74.8
M15
G01X130.825Y-74.8
M16
G05
G00X129.775Y-75.9
M15
G01X130.825Y-75.9
M16
G05
G00X129.775Y-77.0
M15
G01X130.825Y-77.0
M16
G05
G00X129.775Y-78.1
M15
G01X130.825Y-78.1
M16
G05
G00X129.775Y-79.2
M15
G01X130.825Y-79.2
M16
G05
G00X131.5Y-81.225
M15
G01X131.5Y-80.175
M16
G05
G00X132.6Y-81.225
M15
G01X132.6Y-80.175
M16
G05
G00X133.7Y-81.225
M15
G01X133.7Y-80.175
M16
G05
G00X134.8Y-81.225
M15
G01X134.8Y-80.175
M16
G05
G00X135.9Y-81.225
M15
G01X135.9Y-80.175
M16
G05
G00X137.0Y-81.225
M15
G01X137.0Y-80.175
M16
G05
G00X138.1Y-81.225
M15
G01X138.1Y-80.175
M16
G05
G00X139.2Y-81.225
M15
G01X139.2Y-80.175
M16
G05
G00X140.3Y-81.225
M15
G01X140.3Y-80.175
M16
G05
G00X141.4Y-81.225
M15
G01X141.4Y-80.175
M16
G05
G00X142.5Y-81.225
M15
G01X142.5Y-80.175
M16
G05
G00X144.225Y-66.05
M15
G01X143.175Y-66.05
M16
G05
G00X144.225Y-67.15
M15
G01X143.175Y-67.15
M16
G05
G00X144.225Y-68.25
M15
G01X143.175Y-68.25
M16
G05
G00X144.225Y-69.35
M15
G01X143.175Y-69.35
M16
G05
G00X144.225Y-70.45
M15
G01X143.175Y-70.45
M16
G05
G00X144.225Y-71.55
M15
G01X143.175Y-71.55
M16
G05
G00X144.225Y-72.65
M15
G01X143.175Y-72.65
M16
G05
G00X144.225Y-73.75
M15
G01X143.175Y-73.75
M16
G05
G00X144.225Y-74.85
M15
G01X143.175Y-74.85
M16
G05
G00X144.225Y-75.95
M15
G01X143.175Y-75.95
M16
G05
G00X144.225Y-77.05
M15
G01X143.175Y-77.05
M16
G05
G00X144.225Y-78.15
M15
G01X143.175Y-78.15
M16
G05
G00X144.225Y-79.25
M15
G01X143.175Y-79.25
M16
G05
T0
M30
