%TF.GenerationSoftware,KiCad,Pcbnew,(6.0.4-0)*%
%TF.CreationDate,2022-07-01T21:41:05+01:00*%
%TF.ProjectId,holyiot-flexypin,686f6c79-696f-4742-9d66-6c6578797069,rev?*%
%TF.SameCoordinates,Original*%
%TF.FileFunction,Soldermask,Top*%
%TF.FilePolarity,Negative*%
%FSLAX46Y46*%
G04 Gerber Fmt 4.6, Leading zero omitted, Abs format (unit mm)*
G04 Created by KiCad (PCBNEW (6.0.4-0)) date 2022-07-01 21:41:05*
%MOMM*%
%LPD*%
G01*
G04 APERTURE LIST*
%ADD10R,1.700000X1.700000*%
%ADD11O,1.700000X1.700000*%
%ADD12O,2.000000X0.950000*%
%ADD13R,1.300000X0.900000*%
%ADD14R,0.900000X1.300000*%
%ADD15O,0.950000X2.000000*%
G04 APERTURE END LIST*
D10*
%TO.C,J6*%
X154000000Y-99975000D03*
D11*
X154000000Y-97435000D03*
X154000000Y-94895000D03*
X154000000Y-92355000D03*
X154000000Y-89815000D03*
X154000000Y-87275000D03*
X154000000Y-84735000D03*
X154000000Y-82195000D03*
X154000000Y-79655000D03*
X154000000Y-77115000D03*
X154000000Y-74575000D03*
X154000000Y-72035000D03*
X154000000Y-69495000D03*
%TD*%
D12*
%TO.C,J5*%
X143700000Y-66050000D03*
D13*
X145550000Y-66050000D03*
D12*
X143700000Y-67150000D03*
D13*
X145550000Y-67150000D03*
D12*
X143700000Y-68250000D03*
D13*
X145550000Y-68250000D03*
D12*
X143700000Y-69350000D03*
D13*
X145550000Y-69350000D03*
D12*
X143700000Y-70450000D03*
D13*
X145550000Y-70450000D03*
D12*
X143700000Y-71550000D03*
D13*
X145550000Y-71550000D03*
D12*
X143700000Y-72650000D03*
D13*
X145550000Y-72650000D03*
D12*
X143700000Y-73750000D03*
D13*
X145550000Y-73750000D03*
D12*
X143700000Y-74850000D03*
D13*
X145550000Y-74850000D03*
D12*
X143700000Y-75950000D03*
D13*
X145550000Y-75950000D03*
D12*
X143700000Y-77050000D03*
D13*
X145550000Y-77050000D03*
D12*
X143700000Y-78150000D03*
D13*
X145550000Y-78150000D03*
D12*
X143700000Y-79250000D03*
D13*
X145550000Y-79250000D03*
%TD*%
D10*
%TO.C,J4*%
X124300000Y-103500000D03*
D11*
X126840000Y-103500000D03*
X129380000Y-103500000D03*
X131920000Y-103500000D03*
X134460000Y-103500000D03*
X137000000Y-103500000D03*
X139540000Y-103500000D03*
X142080000Y-103500000D03*
X144620000Y-103500000D03*
X147160000Y-103500000D03*
X149700000Y-103500000D03*
%TD*%
D14*
%TO.C,J3*%
X131500000Y-82550000D03*
D15*
X131500000Y-80700000D03*
D14*
X132600000Y-82550000D03*
D15*
X132600000Y-80700000D03*
D14*
X133700000Y-82550000D03*
D15*
X133700000Y-80700000D03*
D14*
X134800000Y-82550000D03*
D15*
X134800000Y-80700000D03*
D14*
X135900000Y-82550000D03*
D15*
X135900000Y-80700000D03*
D14*
X137000000Y-82550000D03*
D15*
X137000000Y-80700000D03*
D14*
X138100000Y-82550000D03*
D15*
X138100000Y-80700000D03*
D14*
X139200000Y-82550000D03*
D15*
X139200000Y-80700000D03*
D14*
X140300000Y-82550000D03*
D15*
X140300000Y-80700000D03*
D14*
X141400000Y-82550000D03*
D15*
X141400000Y-80700000D03*
D14*
X142500000Y-82550000D03*
D15*
X142500000Y-80700000D03*
%TD*%
D10*
%TO.C, *%
X120000000Y-69525000D03*
D11*
X120000000Y-72065000D03*
X120000000Y-74605000D03*
X120000000Y-77145000D03*
X120000000Y-79685000D03*
X120000000Y-82225000D03*
X120000000Y-84765000D03*
X120000000Y-87305000D03*
X120000000Y-89845000D03*
X120000000Y-92385000D03*
X120000000Y-94925000D03*
X120000000Y-97465000D03*
X120000000Y-100005000D03*
%TD*%
D13*
%TO.C,J1*%
X128450000Y-66000000D03*
D12*
X130300000Y-66000000D03*
D13*
X128450000Y-67100000D03*
D12*
X130300000Y-67100000D03*
D13*
X128450000Y-68200000D03*
D12*
X130300000Y-68200000D03*
D13*
X128450000Y-69300000D03*
D12*
X130300000Y-69300000D03*
D13*
X128450000Y-70400000D03*
D12*
X130300000Y-70400000D03*
D13*
X128450000Y-71500000D03*
D12*
X130300000Y-71500000D03*
D13*
X128450000Y-72600000D03*
D12*
X130300000Y-72600000D03*
D13*
X128450000Y-73700000D03*
D12*
X130300000Y-73700000D03*
D13*
X128450000Y-74800000D03*
D12*
X130300000Y-74800000D03*
D13*
X128450000Y-75900000D03*
D12*
X130300000Y-75900000D03*
D13*
X128450000Y-77000000D03*
D12*
X130300000Y-77000000D03*
D13*
X128450000Y-78100000D03*
D12*
X130300000Y-78100000D03*
D13*
X128450000Y-79200000D03*
D12*
X130300000Y-79200000D03*
%TD*%
M02*
